<svg xmlns="http://www.w3.org/2000/svg" viewBox="0 0 512 512">
  <defs>
    <linearGradient id="heartGrad" x1="0%" y1="0%" x2="0%" y2="100%">
      <stop offset="0%" style="stop-color:#f85032;stop-opacity:1" />
      <stop offset="100%" style="stop-color:#e73827;stop-opacity:1" />
    </linearGradient>
  </defs>
  <!-- Stylized Heart Shape -->
  <path d="M256,448L218.8,414.2C87.1,294.8,0,215.9,0,119.2C0,39.8,62.4,0,140.8,0C185.1,0,227.6,20.6,256,53.2C284.4,20.6,326.9,0,371.2,0C449.6,0,512,39.8,512,119.2C512,215.9,424.9,294.8,293.2,414.2L256,448Z" fill="url(#heartGrad)"/>
  <!-- ECG Rhythm Line -->
  <path d="M120,220h50l20,-60l30,130l40,-180l40,110l20,-45l72,0" fill="none" stroke="white" stroke-width="28" stroke-linecap="round" stroke-linejoin="round"/>
</svg>
